<svg xmlns="http://www.w3.org/2000/svg" version="1.1" xmlns:xlink="http://www.w3.org/1999/xlink" xmlns:svgjs="http://svgjs.com/svgjs" width="1920" height="1080" preserveAspectRatio="none" viewBox="0 0 1920 1080">
    <g mask="url(&quot;#SvgjsMask1153&quot;)" fill="none">
    <rect width="1920" height="1080" x="0" y="0" fill="#0e2a47"></rect>
    <path d="M121 459L-235 815" stroke-width="10" stroke="url(#SvgjsLinearGradient1154)" stroke-linecap="round" class="TopRight"></path>
    <path d="M1617 167L2143 -359" stroke-width="10" stroke="url(#SvgjsLinearGradient1155)" stroke-linecap="round" class="BottomLeft"></path>
    <path d="M66 220L844 -558" stroke-width="8" stroke="url(#SvgjsLinearGradient1154)" stroke-linecap="round" class="TopRight"></path>
    <path d="M664 452L1257 -141" stroke-width="6" stroke="url(#SvgjsLinearGradient1155)" stroke-linecap="round" class="BottomLeft"></path>
    <path d="M1559 161L781 939" stroke-width="10" stroke="url(#SvgjsLinearGradient1154)" stroke-linecap="round" class="TopRight"></path>
    <path d="M97 985L898 184" stroke-width="10" stroke="url(#SvgjsLinearGradient1155)" stroke-linecap="round" class="BottomLeft"></path>
    <path d="M1204 847L618 1433" stroke-width="10" stroke="url(#SvgjsLinearGradient1154)" stroke-linecap="round" class="TopRight"></path>
    <path d="M1616 442L1943 115" stroke-width="6" stroke="url(#SvgjsLinearGradient1155)" stroke-linecap="round" class="BottomLeft"></path>
    <path d="M270 502L-322 1094" stroke-width="10" stroke="url(#SvgjsLinearGradient1154)" stroke-linecap="round" class="TopRight"></path>
    <path d="M410 943L1006 347" stroke-width="6" stroke="url(#SvgjsLinearGradient1154)" stroke-linecap="round" class="TopRight"></path><path d="M1758 705L1350 1113" stroke-width="6" stroke="url(#SvgjsLinearGradient1154)" stroke-linecap="round" class="TopRight"></path><path d="M465 705L-128 1298" stroke-width="6" stroke="url(#SvgjsLinearGradient1155)" stroke-linecap="round" class="BottomLeft"></path><path d="M1111 986L1406 691" stroke-width="6" stroke="url(#SvgjsLinearGradient1155)" stroke-linecap="round" class="BottomLeft"></path><path d="M287 7L981 -687" stroke-width="8" stroke="url(#SvgjsLinearGradient1155)" stroke-linecap="round" class="BottomLeft"></path><path d="M1332 6L1936 -598" stroke-width="10" stroke="url(#SvgjsLinearGradient1154)" stroke-linecap="round" class="TopRight"></path><path d="M551 595L867 279" stroke-width="6" stroke="url(#SvgjsLinearGradient1155)" stroke-linecap="round" class="BottomLeft"></path><path d="M1687 825L1988 524" stroke-width="8" stroke="url(#SvgjsLinearGradient1155)" stroke-linecap="round" class="BottomLeft"></path><path d="M51 732L466 317" stroke-width="10" stroke="url(#SvgjsLinearGradient1155)" stroke-linecap="round" class="BottomLeft"></path><path d="M677 805L988 494" stroke-width="8" stroke="url(#SvgjsLinearGradient1155)" stroke-linecap="round" class="BottomLeft"></path><path d="M1294 206L2094 -594" stroke-width="8" stroke="url(#SvgjsLinearGradient1155)" stroke-linecap="round" class="BottomLeft"></path><path d="M48 618L-530 1196" stroke-width="6" stroke="url(#SvgjsLinearGradient1154)" stroke-linecap="round" class="TopRight"></path><path d="M372 613L890 95" stroke-width="8" stroke="url(#SvgjsLinearGradient1155)" stroke-linecap="round" class="BottomLeft"></path><path d="M58 702L662 98" stroke-width="10" stroke="url(#SvgjsLinearGradient1154)" stroke-linecap="round" class="TopRight"></path><path d="M750 473L1299 -76" stroke-width="8" stroke="url(#SvgjsLinearGradient1154)" stroke-linecap="round" class="TopRight"></path><path d="M177 431L-460 1068" stroke-width="8" stroke="url(#SvgjsLinearGradient1155)" stroke-linecap="round" class="BottomLeft"></path><path d="M1382 1046L988 1440" stroke-width="8" stroke="url(#SvgjsLinearGradient1154)" stroke-linecap="round" class="TopRight"></path><path d="M497 200L179 518" stroke-width="8" stroke="url(#SvgjsLinearGradient1154)" stroke-linecap="round" class="TopRight"></path><path d="M1446 822L684 1584" stroke-width="10" stroke="url(#SvgjsLinearGradient1154)" stroke-linecap="round" class="TopRight"></path><path d="M813 1029L1331 511" stroke-width="8" stroke="url(#SvgjsLinearGradient1154)" stroke-linecap="round" class="TopRight"></path><path d="M547 763L176 1134" stroke-width="6" stroke="url(#SvgjsLinearGradient1155)" stroke-linecap="round" class="BottomLeft"></path><path d="M1584 629L814 1399" stroke-width="6" stroke="url(#SvgjsLinearGradient1154)" stroke-linecap="round" class="TopRight"></path><path d="M0 815L433 382" stroke-width="8" stroke="url(#SvgjsLinearGradient1155)" stroke-linecap="round" class="BottomLeft"></path><path d="M102 424L-409 935" stroke-width="8" stroke="url(#SvgjsLinearGradient1155)" stroke-linecap="round" class="BottomLeft"></path><path d="M443 613L801 255" stroke-width="8" stroke="url(#SvgjsLinearGradient1155)" stroke-linecap="round" class="BottomLeft"></path><path d="M1398 531L642 1287" stroke-width="10" stroke="url(#SvgjsLinearGradient1154)" stroke-linecap="round" class="TopRight"></path><path d="M1501 500L778 1223" stroke-width="10" stroke="url(#SvgjsLinearGradient1155)" stroke-linecap="round" class="BottomLeft"></path><path d="M707 603L1083 227" stroke-width="10" stroke="url(#SvgjsLinearGradient1154)" stroke-linecap="round" class="TopRight"></path><path d="M308 716L9 1015" stroke-width="6" stroke="url(#SvgjsLinearGradient1154)" stroke-linecap="round" class="TopRight"></path><path d="M424 854L-319 1597" stroke-width="8" stroke="url(#SvgjsLinearGradient1155)" stroke-linecap="round" class="BottomLeft"></path><path d="M277 183L-281 741" stroke-width="8" stroke="url(#SvgjsLinearGradient1154)" stroke-linecap="round" class="TopRight"></path><path d="M583 34L1317 -700" stroke-width="6" stroke="url(#SvgjsLinearGradient1154)" stroke-linecap="round" class="TopRight"></path><path d="M1797 953L1254 1496" stroke-width="10" stroke="url(#SvgjsLinearGradient1155)" stroke-linecap="round" class="BottomLeft"></path><path d="M744 990L1508 226" stroke-width="6" stroke="url(#SvgjsLinearGradient1155)" stroke-linecap="round" class="BottomLeft"></path><path d="M2 596L-593 1191" stroke-width="8" stroke="url(#SvgjsLinearGradient1155)" stroke-linecap="round" class="BottomLeft"></path><path d="M106 253L-398 757" stroke-width="6" stroke="url(#SvgjsLinearGradient1155)" stroke-linecap="round" class="BottomLeft"></path><path d="M1478 218L1069 627" stroke-width="6" stroke="url(#SvgjsLinearGradient1154)" stroke-linecap="round" class="TopRight"></path><path d="M4 1011L-490 1505" stroke-width="8" stroke="url(#SvgjsLinearGradient1154)" stroke-linecap="round" class="TopRight"></path><path d="M566 638L987 217" stroke-width="6" stroke="url(#SvgjsLinearGradient1154)" stroke-linecap="round" class="TopRight"></path><path d="M1724 714L1441 997" stroke-width="8" stroke="url(#SvgjsLinearGradient1155)" stroke-linecap="round" class="BottomLeft"></path><path d="M959 50L487 522" stroke-width="6" stroke="url(#SvgjsLinearGradient1155)" stroke-linecap="round" class="BottomLeft"></path><path d="M988 438L519 907" stroke-width="6" stroke="url(#SvgjsLinearGradient1155)" stroke-linecap="round" class="BottomLeft"></path><path d="M1772 835L2527 80" stroke-width="10" stroke="url(#SvgjsLinearGradient1155)" stroke-linecap="round" class="BottomLeft"></path><path d="M201 147L670 -322" stroke-width="8" stroke="url(#SvgjsLinearGradient1154)" stroke-linecap="round" class="TopRight"></path><path d="M1853 619L1525 947" stroke-width="10" stroke="url(#SvgjsLinearGradient1154)" stroke-linecap="round" class="TopRight"></path><path d="M1660 190L1256 594" stroke-width="6" stroke="url(#SvgjsLinearGradient1154)" stroke-linecap="round" class="TopRight"></path><path d="M282 692L717 257" stroke-width="10" stroke="url(#SvgjsLinearGradient1154)" stroke-linecap="round" class="TopRight"></path></g><defs><mask id="SvgjsMask1153"><rect width="1920" height="1080" fill="#ffffff"></rect></mask><linearGradient x1="0%" y1="100%" x2="100%" y2="0%" id="SvgjsLinearGradient1154"><stop stop-color="rgba(60, 122, 188, 0)" offset="0"></stop><stop stop-color="rgba(60, 122, 188, 1)" offset="1"></stop></linearGradient><linearGradient x1="100%" y1="0%" x2="0%" y2="100%" id="SvgjsLinearGradient1155"><stop stop-color="rgba(60, 122, 188, 0)" offset="0"></stop><stop stop-color="rgba(60, 122, 188, 1)" offset="1"></stop></linearGradient>
    </defs>

</svg>