<svg xmlns="http://www.w3.org/2000/svg" version="1.1" xmlns:xlink="http://www.w3.org/1999/xlink" xmlns:svgjs="http://svgjs.com/svgjs" width="1920" height="1080" preserveAspectRatio="none" viewBox="0 0 1920 1080"><g mask="url(&quot;#SvgjsMask1033&quot;)" fill="none"><rect width="1920" height="1080" x="0" y="0" fill="rgba(14, 42, 71, 1)"></rect><path d="M117 1080L1197 0L1614 0L534 1080z" fill="url(#SvgjsLinearGradient1034)"></path><path d="M700.6 1080L1780.6 0L2703.1 0L1623.1 1080z" fill="url(#SvgjsLinearGradient1034)"></path><path d="M1811 1080L731 0L230 0L1310 1080z" fill="url(#SvgjsLinearGradient1035)"></path><path d="M1166.4 1080L86.40000000000009 0L-668.0999999999999 0L411.9000000000001 1080z" fill="url(#SvgjsLinearGradient1035)"></path><path d="M1246.3772580157793 1080L1920 406.3772580157794L1920 1080z" fill="url(#SvgjsLinearGradient1034)"></path><path d="M0 1080L673.6227419842206 1080L 0 406.3772580157794z" fill="url(#SvgjsLinearGradient1035)"></path></g><defs><mask id="SvgjsMask1033"><rect width="1920" height="1080" fill="#ffffff"></rect></mask><linearGradient x1="0%" y1="100%" x2="100%" y2="0%" id="SvgjsLinearGradient1034"><stop stop-color="rgba(59, 120, 185, 1)" offset="0"></stop><stop stop-opacity="0" stop-color="rgba(59, 120, 185, 1)" offset="0.66"></stop></linearGradient><linearGradient x1="100%" y1="100%" x2="0%" y2="0%" id="SvgjsLinearGradient1035"><stop stop-color="rgba(59, 120, 185, 1)" offset="0"></stop><stop stop-opacity="0" stop-color="rgba(59, 120, 185, 1)" offset="0.66"></stop></linearGradient></defs></svg>