<svg xmlns="http://www.w3.org/2000/svg" version="1.1" xmlns:xlink="http://www.w3.org/1999/xlink" xmlns:svgjs="http://svgjs.com/svgjs" width="1920" height="1080" preserveAspectRatio="none" viewBox="0 0 1920 1080"><g mask="url(&quot;#SvgjsMask1014&quot;)" fill="none"><rect width="1920" height="1080" x="0" y="0" fill="url(#SvgjsLinearGradient1015)"></rect><path d="M0 0L381.47 0L0 352.26z" fill="rgba(255, 255, 255, .1)"></path><path d="M0 352.26L381.47 0L499.64000000000004 0L0 451.37z" fill="rgba(255, 255, 255, .075)"></path><path d="M0 451.37L499.64000000000004 0L996.9100000000001 0L0 474.31z" fill="rgba(255, 255, 255, .05)"></path><path d="M0 474.31L996.9100000000001 0L1525.2 0L0 830.21z" fill="rgba(255, 255, 255, .025)"></path><path d="M1920 1080L1255.17 1080L1920 578.51z" fill="rgba(0, 0, 0, .1)"></path><path d="M1920 578.51L1255.17 1080L1164.2 1080L1920 292.21z" fill="rgba(0, 0, 0, .075)"></path><path d="M1920 292.21000000000004L1164.1999999999998 1080L869.5799999999998 1080L1920 170.22000000000003z" fill="rgba(0, 0, 0, .05)"></path><path d="M1920 170.22000000000003L869.5799999999999 1080L861.4499999999999 1080L1920 134.68000000000004z" fill="rgba(0, 0, 0, .025)"></path></g><defs><mask id="SvgjsMask1014"><rect width="1920" height="1080" fill="#ffffff"></rect></mask><linearGradient x1="10.94%" y1="-19.44%" x2="89.06%" y2="119.44%" gradientUnits="userSpaceOnUse" id="SvgjsLinearGradient1015"><stop stop-color="#0e2a47" offset="0"></stop><stop stop-color="rgba(14, 42, 71, 1)" offset="1"></stop></linearGradient></defs></svg>