<svg xmlns="http://www.w3.org/2000/svg" version="1.1" xmlns:xlink="http://www.w3.org/1999/xlink" xmlns:svgjs="http://svgjs.com/svgjs" width="1920" height="1080" preserveAspectRatio="none" viewBox="0 0 1920 1080"><g mask="url(&quot;#SvgjsMask1032&quot;)" fill="none"><rect width="1920" height="1080" x="0" y="0" fill="rgba(14, 42, 71, 1)"></rect><path d="M0,682.477C124.435,654.731,228.123,587.16,345.761,538.014C493.654,476.228,703.067,496.781,780.458,356.423C856.711,218.129,748.697,49.154,697.729,-100.318C654.97,-225.715,587.57,-334.33,508.637,-440.737C423.377,-555.673,351.566,-691.903,218.964,-745.721C81.881,-801.357,-83.637,-801.341,-215.736,-734.731C-341.854,-671.137,-375.327,-511.965,-463.476,-401.604C-546.969,-297.072,-673.819,-229.1,-719.913,-103.508C-771.36,36.667,-778.693,192.716,-733.876,335.15C-685.892,487.648,-605.929,649.605,-461.427,717.995C-319.108,785.351,-153.679,716.743,0,682.477" fill="#091b2e"></path><path d="M1920 1776.3220000000001C2043.285 1741.4650000000001 2142.7690000000002 1661.9569999999999 2241.628 1580.464 2329.829 1507.758 2392.737 1417.952 2463.572 1328.241 2558.5879999999997 1207.906 2712.568 1116.229 2728.5879999999997 963.7429999999999 2745.08 806.768 2674.357 629.7909999999999 2546.706 536.956 2420.735 445.34299999999996 2245.977 507.45799999999997 2090.413 499.626 1974.315 493.78099999999995 1860.546 464.92600000000004 1748.752 496.784 1636.3809999999999 528.806 1550.141 607.762 1458.146 679.8009999999999 1344.226 769.009 1179.4569999999999 827.937 1146.076 968.726 1112.821 1108.986 1245.509 1229.984 1295.656 1365.128 1350.797 1513.731 1323.165 1715.534 1455.539 1802.716 1587.723 1889.772 1767.694 1819.384 1920 1776.3220000000001" fill="#133960"></path></g><defs><mask id="SvgjsMask1032"><rect width="1920" height="1080" fill="#ffffff"></rect></mask></defs></svg>